<?xml version="1.0" encoding="utf-8"?>
<!-- Generator: Adobe Illustrator 21.0.0, SVG Export Plug-In . SVG Version: 6.00 Build 0)  -->
<svg version="1.1" id="Layer_1" xmlns="http://www.w3.org/2000/svg" xmlns:xlink="http://www.w3.org/1999/xlink" x="0px" y="0px"
	 viewBox="0 0 500 500" style="enable-background:new 0 0 500 500;" xml:space="preserve">
<style type="text/css">
	.st0{fill:#FFFFFF;}
</style>
<title>ae</title>
<path class="st0" d="M148.7,300.8l-13.4,48.4H91l57.6-188.7h56l58.5,188.7h-45.9l-14.6-48.4L148.7,300.8z M196.5,268.9l-11.8-40
	c-3.4-11.2-6.7-25.2-9.5-36.4h-0.6c-2.8,11.2-5.6,25.5-8.7,36.4l-11.2,40H196.5z"/>
<path class="st0" d="M315.8,294.3c1.4,17.6,18.8,26,38.6,26c12.8,0.2,25.6-1.7,37.8-5.6l5.6,28.8c-14,5.6-31.1,8.4-49.5,8.4
	c-46.5,0-73.1-26.9-73.1-69.7c0-34.7,21.5-73.1,69.1-73.1c44.2,0,61,34.4,61,68.3c0,5.6-0.5,11.2-1.4,16.8L315.8,294.3z
	 M365.9,265.2c0-10.4-4.5-27.7-24.1-27.7c-17.9,0-25.2,16.2-26.3,27.7H365.9z"/>
<path class="st0" d="M500,500H0V0h500V500z M17.1,482.9h465.8V17.1H17.1V482.9z"/>
</svg>
