<?xml version="1.0" encoding="utf-8"?>
<!-- Generator: Adobe Illustrator 21.0.0, SVG Export Plug-In . SVG Version: 6.00 Build 0)  -->
<svg version="1.1" id="Layer_1" xmlns="http://www.w3.org/2000/svg" xmlns:xlink="http://www.w3.org/1999/xlink" x="0px" y="0px"
	 viewBox="0 0 500 500" style="enable-background:new 0 0 500 500;" xml:space="preserve">
<style type="text/css">
	.st0{fill:#FFFFFF;}
</style>
<title>Ai</title>
<path class="st0" d="M183.1,300.8l-13.4,48.4h-44.2l57.7-188.7h56l58.5,188.7h-45.9l-14.6-48.4L183.1,300.8z M231,268.9l-11.8-40
	c-3.4-11.2-6.7-25.2-9.5-36.4h-0.6c-2.8,11.2-5.6,25.5-8.7,36.4l-11.2,40H231z"/>
<path class="st0" d="M363.6,174.3c0,11.8-9,21.3-23,21.3c-13.4,0-22.4-9.5-22.1-21.3c-0.3-12.3,8.7-21.6,22.4-21.6
	S363.4,161.9,363.6,174.3 M319.7,212.3h42.5v136.9h-42.5L319.7,212.3z"/>
<path class="st0" d="M500,500H0V0h500V500z M17.1,482.9h465.8V17.1H17.1V482.9z"/>
</svg>
