<svg id="Layer_1" data-name="Layer 1" xmlns="http://www.w3.org/2000/svg" viewBox="0 0 485.05 120.99"><defs><style>.cls-1{fill:#ff8c00;}</style></defs><title>belt3</title><path class="cls-1" d="M280.37,221.8H269.19a12.32,12.32,0,0,1-10.56,6h-2l24.27,30.74a1.63,1.63,0,0,0,2.29.27l15-11.83a1.62,1.62,0,0,0,.27-2.29Z" transform="translate(-7.98 -188.01)"/><path class="cls-1" d="M231.81,221.8H219.43l-52.34,73.27a2.27,2.27,0,0,0,.52,3.16l14.5,10.35a2.26,2.26,0,0,0,3.16-.52l56.19-78.66a2.28,2.28,0,0,0,.4-1.61A12.3,12.3,0,0,1,231.81,221.8Z" transform="translate(-7.98 -188.01)"/><path class="cls-1" d="M220,216.35H230.1c0-.28,0-.57,0-.86V194.86c0-.29,0-.58,0-.86H12.61A4.64,4.64,0,0,0,8,198.63v13.08a4.64,4.64,0,0,0,4.63,4.63H220Z" transform="translate(-7.98 -188.01)"/><path class="cls-1" d="M488.39,194H270.9c0,.28,0,.57,0,.86v20.62c0,.29,0,.58,0,.86H488.39a4.64,4.64,0,0,0,4.63-4.63V198.63A4.64,4.64,0,0,0,488.39,194Z" transform="translate(-7.98 -188.01)"/><path class="cls-1" d="M261.31,221.8a7,7,0,0,0,3.16-2.72,6.78,6.78,0,0,0,1-2.72,5.62,5.62,0,0,0,.06-.86V194.86a6.8,6.8,0,0,0,0-.75.35.35,0,0,0,0-.11,6.78,6.78,0,0,0-1-2.72,7,7,0,0,0-3.16-2.72l-.38-.15a6.88,6.88,0,0,0-2.31-.4H242.37a6.84,6.84,0,0,0-2.68.54,7,7,0,0,0-3.17,2.72,6.78,6.78,0,0,0-1,2.72,5.62,5.62,0,0,0-.06.86v20.62c0,.06,0,.12,0,.18a5.65,5.65,0,0,0,.05.68,6.78,6.78,0,0,0,1,2.72,7.13,7.13,0,0,0,1.73,1.9l.29.2.87.62h.28a6.84,6.84,0,0,0,2.68.54h16.26A6.87,6.87,0,0,0,261.31,221.8Z" transform="translate(-7.98 -188.01)"/></svg>