<svg id="Layer_1" data-name="Layer 1" xmlns="http://www.w3.org/2000/svg" viewBox="0 0 489.05 124.99"><defs><style>.cls-1{fill:#fff;}</style></defs><title>belt7</title><path class="cls-1" d="M282.18,261.15a3.6,3.6,0,0,1-2.85-1.39l-26.83-34h6.13a10.38,10.38,0,0,0,8.85-5l.58-1h13.27L300,243.44a3.62,3.62,0,0,1-.61,5.11l-15,11.82a3.66,3.66,0,0,1-2.25.78Z" transform="translate(-5.98 -186.01)"/><path d="M280.37,221.8H269.19a12.32,12.32,0,0,1-10.56,6h-2l24.27,30.74a1.63,1.63,0,0,0,2.29.27l15-11.83a1.62,1.62,0,0,0,.27-2.29Z" transform="translate(-5.98 -186.01)"/><path class="cls-1" d="M183.43,311a4.21,4.21,0,0,1-2.48-.8l-14.49-10.35a4.27,4.27,0,0,1-1-5.95L218.4,219.8h14.54l.58,1a10.27,10.27,0,0,0,8.42,5l1.68.07.22,1.67a4.27,4.27,0,0,1-.75,3l-56.2,78.67a4.22,4.22,0,0,1-2.78,1.73,4.26,4.26,0,0,1-.7.06Z" transform="translate(-5.98 -186.01)"/><path d="M231.81,221.8H219.43l-52.34,73.27a2.27,2.27,0,0,0,.52,3.16l14.5,10.35a2.26,2.26,0,0,0,3.16-.52l56.19-78.66a2.28,2.28,0,0,0,.4-1.61A12.3,12.3,0,0,1,231.81,221.8Z" transform="translate(-5.98 -186.01)"/><path class="cls-1" d="M12.61,218.35A6.64,6.64,0,0,1,6,211.71V198.63A6.64,6.64,0,0,1,12.61,192H232.25l-.16,2.15c0,.23,0,.47,0,.71v20.62c0,.24,0,.48,0,.71l.16,2.15Z" transform="translate(-5.98 -186.01)"/><path d="M220,216.35H230.1c0-.28,0-.57,0-.86V194.86c0-.29,0-.58,0-.86H12.61A4.64,4.64,0,0,0,8,198.63v13.08a4.64,4.64,0,0,0,4.63,4.63H220Z" transform="translate(-5.98 -186.01)"/><path class="cls-1" d="M268.74,218.35l.17-2.16c0-.23,0-.47,0-.7V194.86c0-.24,0-.47,0-.7l-.17-2.16H488.39a6.64,6.64,0,0,1,6.63,6.63v13.08a6.64,6.64,0,0,1-6.63,6.63Z" transform="translate(-5.98 -186.01)"/><path d="M488.39,194H270.9c0,.28,0,.57,0,.86v20.62c0,.29,0,.58,0,.86H488.39a4.64,4.64,0,0,0,4.63-4.63V198.63A4.64,4.64,0,0,0,488.39,194Z" transform="translate(-5.98 -186.01)"/><path class="cls-1" d="M242.37,224.34a8.8,8.8,0,0,1-3.06-.54h-.54l-1.39-1-.33-.24a9.08,9.08,0,0,1-2.22-2.44,8.76,8.76,0,0,1-1.24-3.54,7.3,7.3,0,0,1-.07-.82c0-.09,0-.18,0-.28V194.86a7.61,7.61,0,0,1,.08-1.16,8.65,8.65,0,0,1,1.22-3.46,8.86,8.86,0,0,1,7.55-4.23h16.26a8.83,8.83,0,0,1,3,.51l.51.2a8.89,8.89,0,0,1,4.06,3.5,8.76,8.76,0,0,1,1.23,3.43,2.33,2.33,0,0,1,0,.31,8.55,8.55,0,0,1,0,.9v20.62a7.75,7.75,0,0,1-.08,1.16,8.68,8.68,0,0,1-1.22,3.47,9,9,0,0,1-4.08,3.52,8.84,8.84,0,0,1-3.47.71Z" transform="translate(-5.98 -186.01)"/><path d="M261.31,221.8a7,7,0,0,0,3.16-2.72,6.78,6.78,0,0,0,1-2.72,5.62,5.62,0,0,0,.06-.86V194.86a6.8,6.8,0,0,0,0-.75.35.35,0,0,0,0-.11,6.78,6.78,0,0,0-1-2.72,7,7,0,0,0-3.16-2.72l-.38-.15a6.88,6.88,0,0,0-2.31-.4H242.37a6.84,6.84,0,0,0-2.68.54,7,7,0,0,0-3.17,2.72,6.78,6.78,0,0,0-1,2.72,5.62,5.62,0,0,0-.06.86v20.62c0,.06,0,.12,0,.18a5.65,5.65,0,0,0,.05.68,6.78,6.78,0,0,0,1,2.72,7.13,7.13,0,0,0,1.73,1.9l.29.2.87.62h.28a6.84,6.84,0,0,0,2.68.54h16.26A6.87,6.87,0,0,0,261.31,221.8Z" transform="translate(-5.98 -186.01)"/></svg>