<?xml version="1.0" encoding="utf-8"?>
<!-- Generator: Adobe Illustrator 21.0.0, SVG Export Plug-In . SVG Version: 6.00 Build 0)  -->
<svg version="1.1" id="Layer_1" xmlns="http://www.w3.org/2000/svg" xmlns:xlink="http://www.w3.org/1999/xlink" x="0px" y="0px"
	 viewBox="0 0 352 496.9" style="enable-background:new 0 0 352 496.9;" xml:space="preserve">
<style type="text/css">
	.st0{fill:#FFFFFF;}
</style>
<title>css</title>
<path class="st0" d="M0,97.6l32,359.3l143.8,39.9v0l144.1-40L352,97.6H0z M278.3,260.3l-1.1,11.8l-10.4,116l-0.7,7.4l-90.2,25v0
	l-0.2,0.1l-90.3-25.1l-6.2-69.2h44.2l3.1,35.1l49.1,13.3l0,0v0l49.2-13.3l5.1-57.1H77.4l-4-44.1h160.5l4-45.1H69.5l-4-44.1h220.7
	L278.3,260.3z"/>
<path class="st0" d="M233.3,23.3v-3.9h31V0h-53.3v43.7H242v3.9h-31.1v20.4h53.4V23.3H233.3z M169.2,23.3v-3.9h31V0h-53.3v43.7h31
	v3.9h-31v20.4h53.4V23.3H169.2z M136.2,22.3V0H82.8v67h53.4V44.6h-31.1V22.3H136.2z"/>
</svg>
