<svg id="Layer_1" data-name="Layer 1" xmlns="http://www.w3.org/2000/svg" viewBox="0 0 338.38 497"><title>figma</title><path d="M169.69,1A90,90,0,0,0,79.81,90.88c0,34.9,20.62,64.43,49.8,79.31-29.18,14.88-49.8,44.41-49.8,79.31s20.62,64.43,49.8,79.31c-29.18,14.88-49.8,44.41-49.8,79.31a89.88,89.88,0,0,0,179.77,0V293.45c14.18,26.92,41.58,45.93,74,45.93a84.76,84.76,0,0,0,84.6-84.6c0-38.3-26.16-69.49-61.17-79.85,35.31-12.13,61.17-44.72,61.17-84.06A90,90,0,0,0,328.31,1H169.69Zm0,21.15h68.73V159.62H169.69a68.73,68.73,0,1,1,0-137.47Zm89.88,0h68.73a68.73,68.73,0,1,1,0,137.47H259.57ZM169.69,180.77h68.73V318.23H169.69a68.73,68.73,0,0,1,0-137.47Zm89.88,0h35.36a84,84,0,0,0-35.36,35.36Zm74,10.57a63.45,63.45,0,1,1-63.45,63.45A63.29,63.29,0,0,1,333.6,191.34Zm-163.9,148h68.73v68.73a68.73,68.73,0,1,1-68.73-68.73Z" transform="translate(-79.81 -1)" style="fill:#fff"/></svg>