<?xml version="1.0" encoding="utf-8"?>
<!-- Generator: Adobe Illustrator 21.0.0, SVG Export Plug-In . SVG Version: 6.00 Build 0)  -->
<svg version="1.1" id="Layer_1" xmlns="http://www.w3.org/2000/svg" xmlns:xlink="http://www.w3.org/1999/xlink" x="0px" y="0px"
	 viewBox="0 0 352 496.9" style="enable-background:new 0 0 352 496.9;" xml:space="preserve">
<style type="text/css">
	.st0{fill:#FFFFFF;}
</style>
<title>html</title>
<path class="st0" d="M0,97.6l32,359.3l143.8,39.9l144.1-40L352,97.6H0z M285.2,182.9l-2,22.3l-0.9,9.9H113.7l4,45.1h160.6l-1.1,11.8
	l-10.4,116l-0.7,7.4l-90.2,25l-0.2,0.1l-90.3-25.1l-6.2-69.2h44.2l3.1,35.2l49.1,13.3l0,0v0l49.2-13.3l5.1-57.1H77.4L66.6,182.9
	l-1.1-11.8h220.7L285.2,182.9z"/>
<path class="st0" d="M32.8,0h22.4v22.1h20.5V0H98v67H75.6V44.6H55.1V67H32.8C32.8,67,32.8,0,32.8,0z"/>
<path class="st0" d="M127.5,22.2h-19.7V0h61.8v22.2h-19.7V67h-22.4V22.2z"/>
<path class="st0" d="M179.4,0h23.4l14.4,23.5L231.5,0h23.4v67h-22.3V33.8l-15.4,23.8h-0.4l-15.4-23.8V67h-21.9V0z"/>
<path class="st0" d="M266,0h22.4v44.8h31.5V67H266V0z"/>
</svg>
