<?xml version="1.0" encoding="utf-8"?>
<!-- Generator: Adobe Illustrator 21.0.0, SVG Export Plug-In . SVG Version: 6.00 Build 0)  -->
<svg version="1.1" id="Layer_1" xmlns="http://www.w3.org/2000/svg" xmlns:xlink="http://www.w3.org/1999/xlink" x="0px" y="0px"
	 viewBox="0 0 500 500" style="enable-background:new 0 0 500 500;" xml:space="preserve">
<style type="text/css">
	.st0{fill:#FFFFFF;}
</style>
<title>js</title>
<path class="st0" d="M0,0v500h500V0H0z M272.1,390c0,48.7-28.5,70.8-70.1,70.8c-37.6,0-59.4-19.5-70.5-43l38.3-23.2
	c7.4,13.1,14.1,24.2,30.2,24.2c15.4,0,25.2-6,25.2-29.5V229.5h47V390z M383.2,460.8c-43.6,0-71.8-20.8-85.6-48h0l38.3-22.1
	c10.1,16.4,23.2,28.5,46.3,28.5c19.5,0,31.9-9.7,31.9-23.2c0-16.1-12.8-21.8-34.2-31.2l-11.7-5c-33.9-14.4-56.4-32.5-56.4-70.8
	c0-35.2,26.9-62.1,68.8-62.1c29.9,0,51.3,10.4,66.8,37.6L410.7,288c-8.1-14.4-16.8-20.1-30.2-20.1c-13.8,0-22.5,8.7-22.5,20.1
	c0,14.1,8.7,19.8,28.9,28.5l11.8,5c39.9,17.1,62.4,34.6,62.4,73.8C461.1,437.6,427.9,460.8,383.2,460.8z"/>
<path class="st0" d="M131.5,417.8L131.5,417.8L131.5,417.8C131.5,417.8,131.5,417.8,131.5,417.8z"/>
</svg>
