<?xml version="1.0" encoding="utf-8"?>
<!-- Generator: Adobe Illustrator 21.0.0, SVG Export Plug-In . SVG Version: 6.00 Build 0)  -->
<svg version="1.1" id="Layer_1" xmlns="http://www.w3.org/2000/svg" xmlns:xlink="http://www.w3.org/1999/xlink" x="0px" y="0px"
	 viewBox="0 0 500 500" style="enable-background:new 0 0 500 500;" xml:space="preserve">
<style type="text/css">
	.st0{fill:#FFFFFF;}
</style>
<title>ps</title>
<path class="st0" d="M129.4,163.1c13.1-2.2,31.6-3.9,57.7-3.9c26.3,0,45.1,5,57.7,15.1c12,9.5,20.2,25.2,20.2,43.7
	s-6.2,34.2-17.4,44.8c-14.6,13.7-36.1,19.9-61.3,19.9c-4.9,0-9.7-0.2-14.6-0.8v67.5h-42.3V163.1z M171.6,248.7
	c3.6,0.8,8.1,1.1,14.3,1.1c22.7,0,36.7-11.5,36.7-30.8c0-17.4-12-27.7-33.3-27.7c-8.7,0-14.6,0.8-17.6,1.7V248.7z"/>
<path class="st0" d="M284.4,312c7.8,4.8,24.1,10.4,36.7,10.4c12.9,0,18.2-4.5,18.2-11.5s-4.2-10.4-20.1-15.7
	c-28.3-9.5-39.2-24.9-38.9-41.2c0-25.5,21.8-44.8,55.7-44.8c16,0,30.2,3.6,38.6,7.8l-7.6,29.4c-6.1-3.4-17.9-7.8-29.7-7.8
	c-10.4,0-16.2,4.2-16.2,11.2c0,6.4,5.3,9.8,22.1,15.7c26,9,37,22.1,37.2,42.3c0,25.5-20.1,44.2-59.3,44.2c-17.9,0-33.9-3.9-44.2-9.5
	L284.4,312z"/>
<path class="st0" d="M500,500H0V0h500V500z M17.1,482.9h465.8V17.1H17.1V482.9z"/>
</svg>
